<svg xmlns="http://www.w3.org/2000/svg" viewBox="0 0 393 852" width="393" height="852">
  <defs>
    <filter id="grain">
      <feTurbulence type="fractalNoise" baseFrequency="0.65" numOctaves="3" stitchTiles="stitch" result="noise"/>
      <feColorMatrix type="saturate" values="0" in="noise" result="mono"/>
      <feBlend in="SourceGraphic" in2="mono" mode="overlay" result="blend"/>
      <feComponentTransfer in="blend">
        <feFuncA type="linear" slope="1"/>
      </feComponentTransfer>
    </filter>
    <filter id="softGlow">
      <feGaussianBlur stdDeviation="12"/>
    </filter>
    <clipPath id="phoneClip">
      <rect x="0" y="0" width="393" height="852" rx="44"/>
    </clipPath>
  </defs>
  <g clip-path="url(#phoneClip)">
  <!-- Background -->
  <rect width="393" height="852" fill="#000000"/>
  <!-- Dust & scratches -->
  <g id="filmTexture" opacity="0.35">
    <circle cx="134" cy="338" r="0.31838859427195865" fill="white" opacity="0.15793905367528466"/>
    <circle cx="63" cy="304" r="0.4857420651005664" fill="white" opacity="0.2673684187226712"/>
    <circle cx="318" cy="248" r="0.28728287915538625" fill="white" opacity="0.2891951754565252"/>
    <circle cx="261" cy="7" r="0.7106713009474002" fill="white" opacity="0.10850537382533838"/>
    <circle cx="259" cy="181" r="0.6754631391764667" fill="white" opacity="0.15736921766545228"/>
    <circle cx="203" cy="192" r="0.3988934397167665" fill="white" opacity="0.13519248460348476"/>
    <circle cx="287" cy="802" r="0.35621242314860935" fill="white" opacity="0.24089926974097556"/>
    <circle cx="120" cy="201" r="0.24312989896960097" fill="white" opacity="0.35361801058083464"/>
    <circle cx="361" cy="578" r="0.740691009630148" fill="white" opacity="0.2785962165242306"/>
    <circle cx="280" cy="83" r="0.2599067352987238" fill="white" opacity="0.34042135175038346"/>
    <circle cx="367" cy="762" r="0.3272221792182338" fill="white" opacity="0.19866284545453855"/>
    <circle cx="49" cy="102" r="0.5461335813756516" fill="white" opacity="0.3482085266992401"/>
    <circle cx="280" cy="114" r="0.3631542523716015" fill="white" opacity="0.28812073642799657"/>
    <circle cx="287" cy="129" r="0.4108480748691536" fill="white" opacity="0.25891682294695173"/>
    <circle cx="211" cy="774" r="0.5495101672971259" fill="white" opacity="0.28167762055464485"/>
    <circle cx="131" cy="229" r="0.5435980177176992" fill="white" opacity="0.22079318181756769"/>
    <circle cx="75" cy="791" r="0.6823138030662894" fill="white" opacity="0.10383774030337234"/>
    <circle cx="22" cy="58" r="0.4974873943588331" fill="white" opacity="0.1118371734302568"/>
    <circle cx="188" cy="783" r="0.79358029111984" fill="white" opacity="0.13536930737504232"/>
    <circle cx="263" cy="581" r="0.6129641271630284" fill="white" opacity="0.11678683009144339"/>
    <circle cx="246" cy="847" r="0.6151732041888772" fill="white" opacity="0.12855746182965438"/>
    <circle cx="157" cy="548" r="0.255094978290065" fill="white" opacity="0.3530517499570275"/>
    <circle cx="185" cy="839" r="0.6504561249113601" fill="white" opacity="0.27267501279870626"/>
    <circle cx="36" cy="818" r="0.48885396486417226" fill="white" opacity="0.32818856722567613"/>
    <circle cx="18" cy="722" r="0.20492476034122353" fill="white" opacity="0.12644999101733528"/>
    <circle cx="243" cy="121" r="0.7184339496057865" fill="white" opacity="0.3923378217426714"/>
    <circle cx="57" cy="143" r="0.34362659869280954" fill="white" opacity="0.16297975355072697"/>
    <circle cx="49" cy="170" r="0.2985492459646937" fill="white" opacity="0.10752834390965295"/>
    <circle cx="124" cy="691" r="0.5009069879485022" fill="white" opacity="0.21374937512038913"/>
    <circle cx="300" cy="734" r="0.6393389236976567" fill="white" opacity="0.22519505505901663"/>
    <circle cx="264" cy="279" r="0.5589587040508216" fill="white" opacity="0.3656104037979001"/>
    <circle cx="246" cy="641" r="0.4490091828780298" fill="white" opacity="0.2622863641595623"/>
    <circle cx="152" cy="469" r="0.7243374505152498" fill="white" opacity="0.10549045858942603"/>
    <circle cx="254" cy="77" r="0.22139105954235078" fill="white" opacity="0.32053606690762926"/>
    <circle cx="9" cy="97" r="0.595182330362103" fill="white" opacity="0.1327867675804977"/>
    <circle cx="109" cy="700" r="0.24985082944803938" fill="white" opacity="0.2275494124710895"/>
    <circle cx="60" cy="685" r="0.43058154411822236" fill="white" opacity="0.23807494538404791"/>
    <circle cx="255" cy="550" r="0.617164114793658" fill="white" opacity="0.33051442817356536"/>
    <circle cx="104" cy="670" r="0.456866837347053" fill="white" opacity="0.17531040821265598"/>
    <circle cx="49" cy="541" r="0.39408418975031256" fill="white" opacity="0.37416355504205956"/>
    <line x1="143" y1="377" x2="303" y2="401" stroke="white" stroke-width="0.3" opacity="0.07910130295868696"/>
    <line x1="393" y1="799" x2="532" y2="812" stroke="white" stroke-width="0.3" opacity="0.05025948116234861"/>
    <line x1="205" y1="261" x2="387" y2="248" stroke="white" stroke-width="0.3" opacity="0.07060702370416393"/>
    <line x1="337" y1="316" x2="443" y2="343" stroke="white" stroke-width="0.3" opacity="0.06050830130418268"/>
    <line x1="74" y1="140" x2="125" y2="136" stroke="white" stroke-width="0.3" opacity="0.03272690113381607"/>
    <line x1="301" y1="638" x2="488" y2="644" stroke="white" stroke-width="0.3" opacity="0.02341768616186483"/>
    <line x1="11" y1="737" x2="78" y2="756" stroke="white" stroke-width="0.3" opacity="0.05836752684047658"/>
    <line x1="65" y1="277" x2="190" y2="299" stroke="white" stroke-width="0.3" opacity="0.023628708576235592"/>
    <ellipse cx="196.5" cy="383.40000000000003" rx="235.79999999999998" ry="127.8" fill="none" stroke="white" stroke-width="0.5" opacity="0.03"/>
  </g>
  <g id="statusBar">
    <text x="32" y="22" font-family="SF Pro Display, -apple-system, sans-serif" font-size="15" font-weight="600" fill="#E8E8E8">9:41</text>
    <g transform="translate(295, 8)">
      <rect x="0" y="6" width="3" height="4" rx="0.5" fill="#666666"/>
      <rect x="5" y="4" width="3" height="6" rx="0.5" fill="#666666"/>
      <rect x="10" y="2" width="3" height="8" rx="0.5" fill="#999999"/>
      <rect x="15" y="0" width="3" height="10" rx="0.5" fill="#E8E8E8"/>
    </g>
    <g transform="translate(325, 7)">
      <path d="M0 6 Q6 -2 12 6" stroke="#999999" stroke-width="1.5" fill="none"/>
      <path d="M2 4 Q6 0 10 4" stroke="#999999" stroke-width="1.5" fill="none"/>
      <circle cx="6" cy="7" r="1.5" fill="#999999"/>
    </g>
    <g transform="translate(348, 7)">
      <rect x="0" y="0" width="24" height="11" rx="3" stroke="#666666" stroke-width="1" fill="none"/>
      <rect x="2" y="2" width="18" height="7" rx="1.5" fill="#999999"/>
      <rect x="25" y="3" width="2" height="5" rx="1" fill="#666666"/>
    </g>
  </g>
  <g id="chatHeader">
    <text x="196.5" y="56" text-anchor="middle" font-family="SF Pro Display, -apple-system, sans-serif" font-size="16" font-weight="200" letter-spacing="4" fill="#E8E8E8">ASK 108</text>
    <rect x="298" y="42" width="75" height="22" rx="11" fill="none" stroke="rgba(255,255,255,0.08)" stroke-width="0.5"/>
    <text x="336" y="57" text-anchor="middle" font-family="SF Pro Display, -apple-system, sans-serif" font-size="10" font-weight="300" fill="#666666">12 / 30</text>
    <line x1="0" y1="74" x2="393" y2="74" stroke="rgba(255,255,255,0.04)" stroke-width="0.5"/>
  </g>
  <g id="userMsg">
    <rect x="100" y="90" width="273" height="38" rx="14" fill="none" stroke="rgba(255,255,255,0.12)" stroke-width="0.5"/>
    <text x="116" y="114" font-family="SF Pro Display, -apple-system, sans-serif" font-size="13" font-weight="400" fill="#E8E8E8">What about my career this month?</text>
  </g>
  <g id="aiResponse">
    <text x="32" y="157" text-anchor="middle" font-family="SF Pro Display, -apple-system, sans-serif" font-size="10" font-weight="700" letter-spacing="1" fill="#999999">108</text>
    <rect x="20" y="167" width="353" height="445" rx="14" fill="#0A0A0A" stroke="rgba(255,255,255,0.06)" stroke-width="0.5"/>
    <text x="36" y="193" font-family="SF Pro Display, -apple-system, sans-serif" font-size="12" font-weight="300" fill="#CCCCCC">Your career enters an activation phase.</text>
    <text x="36" y="211" font-family="SF Pro Display, -apple-system, sans-serif" font-size="12" font-weight="300" fill="#CCCCCC">Mercury Mahadasha activates your 9th lord</text>
    <text x="36" y="229" font-family="SF Pro Display, -apple-system, sans-serif" font-size="12" font-weight="300" fill="#CCCCCC">(fortune) from the Lagna — opportunities</text>
    <text x="36" y="247" font-family="SF Pro Display, -apple-system, sans-serif" font-size="12" font-weight="300" fill="#CCCCCC">come through your own initiative.</text>
    <rect x="36" y="275" width="301" height="65" rx="10" fill="rgba(255,255,255,0.02)" stroke="rgba(255,255,255,0.06)" stroke-width="0.5"/>
    <circle cx="78" cy="308" r="20" fill="none" stroke="rgba(255,255,255,0.04)" stroke-width="4"/>
    <circle cx="78" cy="308" r="20" fill="none" stroke="#E8E8E8" stroke-width="4" stroke-dasharray="94.2 31.4" stroke-linecap="round" opacity="0.75" transform="rotate(-90 78 308)"/>
    <text x="78" y="312" text-anchor="middle" font-family="SF Pro Display, -apple-system, sans-serif" font-size="13" font-weight="200" fill="#E8E8E8">7.5</text>
    <text x="115" y="301" font-family="SF Pro Display, -apple-system, sans-serif" font-size="13" font-weight="500" fill="#E8E8E8">Career Score</text>
    <text x="115" y="319" font-family="SF Pro Display, -apple-system, sans-serif" font-size="10" font-weight="300" fill="#666666">Strong period for professional moves</text>
    <text x="328" y="307" font-family="SF Pro Display, -apple-system, sans-serif" font-size="16" font-weight="200" fill="#E8E8E8">↑</text>
    <text x="36" y="353" font-family="SF Pro Display, -apple-system, sans-serif" font-size="9" font-weight="500" letter-spacing="2" fill="#666666">KEY TRANSITS</text>
    <rect x="36" y="361" width="301" height="100" rx="8" fill="rgba(255,255,255,0.015)"/>
    <text x="48" y="381" font-family="SF Pro Display, -apple-system, sans-serif" font-size="10" font-weight="500" fill="#E8E8E8">Feb 12</text>
    <text x="108" y="381" font-family="SF Pro Display, -apple-system, sans-serif" font-size="10" font-weight="400" fill="#CCCCCC">Venus → Pisces</text>
    <text x="108" y="395" font-family="SF Pro Display, -apple-system, sans-serif" font-size="9" font-weight="300" fill="#444444">9th house boost</text>
    <line x1="48" y1="401" x2="333" y2="401" stroke="rgba(255,255,255,0.03)" stroke-width="0.5"/>
    <text x="48" y="411" font-family="SF Pro Display, -apple-system, sans-serif" font-size="10" font-weight="500" fill="#E8E8E8">Feb 18</text>
    <text x="108" y="411" font-family="SF Pro Display, -apple-system, sans-serif" font-size="10" font-weight="400" fill="#CCCCCC">Sun → Aquarius</text>
    <text x="108" y="425" font-family="SF Pro Display, -apple-system, sans-serif" font-size="9" font-weight="300" fill="#444444">5th house creativity</text>
    <line x1="48" y1="431" x2="333" y2="431" stroke="rgba(255,255,255,0.03)" stroke-width="0.5"/>
    <text x="48" y="441" font-family="SF Pro Display, -apple-system, sans-serif" font-size="10" font-weight="500" fill="#E8E8E8">Feb 24</text>
    <text x="108" y="441" font-family="SF Pro Display, -apple-system, sans-serif" font-size="10" font-weight="400" fill="#CCCCCC">5-planet stellium</text>
    <text x="108" y="455" font-family="SF Pro Display, -apple-system, sans-serif" font-size="9" font-weight="300" fill="#444444">Peak career window</text>
    <rect x="36" y="473" width="301" height="40" rx="8" fill="none" stroke="rgba(255,255,255,0.1)" stroke-width="0.5"/>
    <text x="196.5" y="494" text-anchor="middle" font-family="SF Pro Display, -apple-system, sans-serif" font-size="12" font-weight="400" letter-spacing="0.5" fill="#E8E8E8">See Full Career Report →</text>
    <text x="196.5" y="508" text-anchor="middle" font-family="SF Pro Display, -apple-system, sans-serif" font-size="9" font-weight="300" fill="#444444">40 credits</text>
  </g>
  <rect x="20" y="625" width="172" height="28" rx="14" fill="none" stroke="rgba(255,255,255,0.06)" stroke-width="0.5"/>
  <text x="106.0" y="643" text-anchor="middle" font-family="SF Pro Display, -apple-system, sans-serif" font-size="10" font-weight="300" fill="#666666">When will I get promoted?</text>
  <rect x="200" y="625" width="184" height="28" rx="14" fill="none" stroke="rgba(255,255,255,0.06)" stroke-width="0.5"/>
  <text x="292.0" y="643" text-anchor="middle" font-family="SF Pro Display, -apple-system, sans-serif" font-size="10" font-weight="300" fill="#666666">Best months for salary hike</text>
  <g id="inputBar">
    <rect x="20" y="722" width="313" height="42" rx="21" fill="#0A0A0A" stroke="rgba(255,255,255,0.08)" stroke-width="0.5"/>
    <text x="44" y="748" font-family="SF Pro Display, -apple-system, sans-serif" font-size="13" font-weight="300" fill="#444444">Ask about your chart...</text>
    <circle cx="355" cy="743" r="19" fill="none" stroke="#E8E8E8" stroke-width="0.5"/>
    <text x="355" y="748" text-anchor="middle" font-family="SF Pro Display, -apple-system, sans-serif" font-size="14" font-weight="300" fill="#E8E8E8">↑</text>
  </g>
  <g id="bottomNav">
    <rect x="0" y="764" width="393" height="88" fill="#0A0A0A"/>
    <line x1="0" y1="764" x2="393" y2="764" stroke="rgba(255,255,255,0.04)" stroke-width="0.5"/>
    <g transform="translate(27.299999999999997, 782)">
      <path d="M12 3L2 12h3v8h6v-6h2v6h6v-8h3L12 3z" fill="#444444"/>
    </g>
    <text x="39.3" y="816" text-anchor="middle" font-family="SF Pro Display, -apple-system, sans-serif" font-size="10" font-weight="400" letter-spacing="0.5" fill="#444444">Home</text>
    <g transform="translate(105.89999999999999, 782)">
      <path d="M12 2C6.48 2 2 6.48 2 12s4.48 10 10 10 10-4.48 10-10S17.52 2 12 2zm0 18c-4.41 0-8-3.59-8-8s3.59-8 8-8 8 3.59 8 8-3.59 8-8 8z" fill="#444444"/>
    </g>
    <text x="117.89999999999999" y="816" text-anchor="middle" font-family="SF Pro Display, -apple-system, sans-serif" font-size="10" font-weight="400" letter-spacing="0.5" fill="#444444">Chart</text>
    <g transform="translate(184.5, 782)">
      <path d="M20 2H4c-1.1 0-2 .9-2 2v18l4-4h14c1.1 0 2-.9 2-2V4c0-1.1-.9-2-2-2zm0 14H6l-2 2V4h16v12z" fill="#E8E8E8"/>
    </g>
    <text x="196.5" y="816" text-anchor="middle" font-family="SF Pro Display, -apple-system, sans-serif" font-size="10" font-weight="500" letter-spacing="0.5" fill="#E8E8E8">Chat</text>
    <circle cx="196.5" cy="776" r="1.5" fill="#E8E8E8"/>
    <g transform="translate(263.09999999999997, 782)">
      <path d="M19 3h-1V1h-2v2H8V1H6v2H5c-1.1 0-2 .9-2 2v14c0 1.1.9 2 2 2h14c1.1 0 2-.9 2-2V5c0-1.1-.9-2-2-2zm0 16H5V8h14v11z" fill="#444444"/>
    </g>
    <text x="275.09999999999997" y="816" text-anchor="middle" font-family="SF Pro Display, -apple-system, sans-serif" font-size="10" font-weight="400" letter-spacing="0.5" fill="#444444">Calendar</text>
    <g transform="translate(341.7, 782)">
      <path d="M12 2C6.48 2 2 6.48 2 12s4.48 10 10 10 10-4.48 10-10S17.52 2 12 2zm0 3c1.66 0 3 1.34 3 3s-1.34 3-3 3-3-1.34-3-3 1.34-3 3-3zm0 14.2c-2.5 0-4.71-1.28-6-3.22.03-1.99 4-3.08 6-3.08 1.99 0 5.97 1.09 6 3.08-1.29 1.94-3.5 3.22-6 3.22z" fill="#444444"/>
    </g>
    <text x="353.7" y="816" text-anchor="middle" font-family="SF Pro Display, -apple-system, sans-serif" font-size="10" font-weight="400" letter-spacing="0.5" fill="#444444">Profile</text>
  </g>
  </g>
</svg>
